<svg width="900" height="900" viewBox="0 0 900 900" fill="none" xmlns="http://www.w3.org/2000/svg">
  <defs>
    <linearGradient id="gridGradient" x1="0" y1="0" x2="1" y2="1">
      <stop stop-color="#F8FAFC" />
      <stop offset="1" stop-color="#E2E8F0" />
    </linearGradient>
  </defs>
  <rect width="900" height="900" rx="48" fill="url(#gridGradient)" />
  <g stroke="#CBD5F5" stroke-width="1.5" opacity="0.7">
    <path d="M60 150H840" />
    <path d="M60 300H840" />
    <path d="M60 450H840" />
    <path d="M60 600H840" />
    <path d="M60 750H840" />
    <path d="M150 60V840" />
    <path d="M300 60V840" />
    <path d="M450 60V840" />
    <path d="M600 60V840" />
    <path d="M750 60V840" />
  </g>
  <rect x="180" y="200" width="540" height="320" rx="36" fill="white" opacity="0.9" />
  <rect x="220" y="240" width="220" height="120" rx="28" fill="#C7D2FE" />
  <rect x="460" y="240" width="220" height="120" rx="28" fill="#E0E7FF" />
  <rect x="220" y="380" width="420" height="60" rx="14" fill="#E2E8F0" />
  <rect x="220" y="460" width="320" height="60" rx="14" fill="#F1F5F9" />
  <circle cx="680" cy="640" r="120" fill="#E0E7FF" />
  <rect x="120" y="620" width="260" height="180" rx="32" fill="#F8FAFC" stroke="#CBD5F5" stroke-width="1.5" />
</svg>
